<svg xmlns="http://www.w3.org/2000/svg" viewBox="0 0 2432 1442" width="2432" height="1442">
  <defs>
    <!-- Trellis brand colors -->
    <linearGradient id="sidebar-bg" x1="0" y1="0" x2="0" y2="1">
      <stop offset="0%" stop-color="#1a311e"/>
      <stop offset="100%" stop-color="#142617"/>
    </linearGradient>
    <linearGradient id="main-bg" x1="0" y1="0" x2="0" y2="1">
      <stop offset="0%" stop-color="#f6f8f5"/>
      <stop offset="100%" stop-color="#f0f3ef"/>
    </linearGradient>
  </defs>

  <!-- ═══════════════════════════════════════════
       BACKGROUND
       ═══════════════════════════════════════════ -->
  <rect width="2432" height="1442" rx="12" fill="url(#main-bg)"/>

  <!-- ═══════════════════════════════════════════
       SIDEBAR  (w=260, Hunter Green)
       ═══════════════════════════════════════════ -->
  <rect x="0" y="0" width="260" height="1442" rx="12" fill="url(#sidebar-bg)"/>
  <!-- Clip right corners so sidebar looks flush -->
  <rect x="12" y="0" width="248" height="1442" fill="url(#sidebar-bg)"/>
  <!-- Right border -->
  <rect x="260" y="0" width="1" height="1442" fill="#213d26"/>

  <!-- Sidebar: Network Trellis logo -->
  <!-- Simplified trellis icon -->
  <g transform="translate(24,24)">
    <!-- Lines -->
    <line x1="16" y1="4" x2="8" y2="12" stroke="#96b593" stroke-width="1.2" stroke-linecap="round"/>
    <line x1="16" y1="4" x2="24" y2="12" stroke="#96b593" stroke-width="1.2" stroke-linecap="round"/>
    <line x1="8" y1="12" x2="5" y2="21" stroke="#96b593" stroke-width="1.2" stroke-linecap="round"/>
    <line x1="8" y1="12" x2="16" y2="21" stroke="#96b593" stroke-width="1.2" stroke-linecap="round"/>
    <line x1="24" y1="12" x2="16" y2="21" stroke="#96b593" stroke-width="1.2" stroke-linecap="round"/>
    <line x1="24" y1="12" x2="27" y2="21" stroke="#96b593" stroke-width="1.2" stroke-linecap="round"/>
    <line x1="5" y1="21" x2="11" y2="28" stroke="#96b593" stroke-width="1.2" stroke-linecap="round"/>
    <line x1="16" y1="21" x2="11" y2="28" stroke="#96b593" stroke-width="1.2" stroke-linecap="round"/>
    <line x1="16" y1="21" x2="21" y2="28" stroke="#96b593" stroke-width="1.2" stroke-linecap="round"/>
    <line x1="27" y1="21" x2="21" y2="28" stroke="#96b593" stroke-width="1.2" stroke-linecap="round"/>
    <!-- Nodes -->
    <circle cx="16" cy="4" r="2.5" fill="#5d8a5a" stroke="#96b593" stroke-width="1"/>
    <circle cx="8" cy="12" r="2" fill="#96b593" stroke="#96b593" stroke-width="0.8"/>
    <circle cx="24" cy="12" r="2" fill="#96b593" stroke="#96b593" stroke-width="0.8"/>
    <circle cx="5" cy="21" r="1.8" fill="#c4a96a" stroke="#96b593" stroke-width="0.8"/>
    <circle cx="16" cy="21" r="2" fill="#96b593" stroke="#96b593" stroke-width="0.8"/>
    <circle cx="27" cy="21" r="1.8" fill="#c4a96a" stroke="#96b593" stroke-width="0.8"/>
    <circle cx="11" cy="28" r="1.8" fill="#b09352" stroke="#96b593" stroke-width="0.8"/>
    <circle cx="21" cy="28" r="1.8" fill="#b09352" stroke="#96b593" stroke-width="0.8"/>
  </g>
  <!-- "Trellis" wordmark -->
  <rect x="62" y="30" width="70" height="14" rx="4" fill="#c1d4bf"/>
  <!-- Plan label -->
  <rect x="62" y="50" width="50" height="8" rx="3" fill="#284a2e"/>

  <!-- ── Nav: Dashboard (ACTIVE) ── -->
  <rect x="14" y="86" width="232" height="40" rx="8" fill="#96793e" opacity="0.25"/>
  <rect x="30" y="100" width="16" height="16" rx="3" fill="#ffffff"/>
  <rect x="58" y="103" width="80" height="10" rx="3" fill="#ffffff"/>

  <!-- Contacts -->
  <rect x="30" y="146" width="16" height="16" rx="3" fill="#5d8a5a"/>
  <rect x="58" y="149" width="68" height="10" rx="3" fill="#5d8a5a"/>

  <!-- Companies -->
  <rect x="30" y="182" width="16" height="16" rx="3" fill="#5d8a5a"/>
  <rect x="58" y="185" width="82" height="10" rx="3" fill="#5d8a5a"/>

  <!-- Deals -->
  <rect x="30" y="218" width="16" height="16" rx="3" fill="#5d8a5a"/>
  <rect x="58" y="221" width="48" height="10" rx="3" fill="#5d8a5a"/>

  <!-- Referrals -->
  <rect x="30" y="254" width="16" height="16" rx="3" fill="#5d8a5a"/>
  <rect x="58" y="257" width="72" height="10" rx="3" fill="#5d8a5a"/>

  <!-- Exchange -->
  <rect x="30" y="290" width="16" height="16" rx="3" fill="#5d8a5a"/>
  <rect x="58" y="293" width="76" height="10" rx="3" fill="#5d8a5a"/>
  <!-- PRO badge -->
  <rect x="196" y="291" width="36" height="18" rx="9" fill="#7a6133" opacity="0.5"/>
  <rect x="203" y="297" width="22" height="6" rx="2" fill="#e6ddc8"/>

  <!-- ── Section: Visualize ── -->
  <rect x="30" y="340" width="64" height="8" rx="3" fill="#b09352"/>

  <!-- Tree View -->
  <rect x="30" y="364" width="16" height="16" rx="3" fill="#5d8a5a"/>
  <rect x="58" y="367" width="72" height="10" rx="3" fill="#5d8a5a"/>

  <!-- Network View -->
  <rect x="30" y="400" width="16" height="16" rx="3" fill="#5d8a5a"/>
  <rect x="58" y="403" width="96" height="10" rx="3" fill="#5d8a5a"/>

  <!-- Galaxy View -->
  <rect x="30" y="436" width="16" height="16" rx="3" fill="#5d8a5a"/>
  <rect x="58" y="439" width="84" height="10" rx="3" fill="#5d8a5a"/>

  <!-- ── Section: Automate ── -->
  <rect x="30" y="478" width="72" height="8" rx="3" fill="#b09352"/>

  <!-- Automations -->
  <rect x="30" y="502" width="16" height="16" rx="3" fill="#5d8a5a"/>
  <rect x="58" y="505" width="90" height="10" rx="3" fill="#5d8a5a"/>

  <!-- Templates -->
  <rect x="30" y="538" width="16" height="16" rx="3" fill="#5d8a5a"/>
  <rect x="58" y="541" width="76" height="10" rx="3" fill="#5d8a5a"/>

  <!-- ── Section: Grow ── -->
  <rect x="30" y="580" width="44" height="8" rx="3" fill="#b09352"/>

  <!-- Insights -->
  <rect x="30" y="604" width="16" height="16" rx="3" fill="#5d8a5a"/>
  <rect x="58" y="607" width="60" height="10" rx="3" fill="#5d8a5a"/>
  <rect x="196" y="605" width="36" height="18" rx="9" fill="#7a6133" opacity="0.5"/>
  <rect x="203" y="611" width="22" height="6" rx="2" fill="#e6ddc8"/>

  <!-- Reports -->
  <rect x="30" y="640" width="16" height="16" rx="3" fill="#5d8a5a"/>
  <rect x="58" y="643" width="62" height="10" rx="3" fill="#5d8a5a"/>

  <!-- Achievements -->
  <rect x="30" y="676" width="16" height="16" rx="3" fill="#5d8a5a"/>
  <rect x="58" y="679" width="98" height="10" rx="3" fill="#5d8a5a"/>

  <!-- Leaderboard -->
  <rect x="30" y="712" width="16" height="16" rx="3" fill="#5d8a5a"/>
  <rect x="58" y="715" width="88" height="10" rx="3" fill="#5d8a5a"/>
  <rect x="196" y="713" width="36" height="18" rx="9" fill="#7a6133" opacity="0.5"/>
  <rect x="203" y="719" width="22" height="6" rx="2" fill="#e6ddc8"/>

  <!-- ── User profile (bottom) ── -->
  <rect x="14" y="1370" width="232" height="52" rx="8" fill="#213d26"/>
  <circle cx="44" cy="1396" r="16" fill="#7a6133"/>
  <rect x="68" y="1388" width="100" height="10" rx="3" fill="#c1d4bf"/>
  <rect x="68" y="1404" width="70" height="8" rx="3" fill="#5d8a5a"/>
  <!-- Chevron -->
  <rect x="218" y="1392" width="12" height="8" rx="2" fill="#5d8a5a"/>

  <!-- ═══════════════════════════════════════════
       TOPBAR  (h=56, white)
       ═══════════════════════════════════════════ -->
  <rect x="261" y="0" width="2171" height="56" fill="#ffffff"/>
  <rect x="261" y="56" width="2171" height="1" fill="#e0e9df"/>

  <!-- Search bar -->
  <rect x="300" y="12" width="320" height="32" rx="8" fill="#ffffff" stroke="#c1d4bf" stroke-width="1"/>
  <!-- Search icon placeholder -->
  <circle cx="318" cy="28" r="6" fill="none" stroke="#96b593" stroke-width="1.5"/>
  <line x1="323" y1="33" x2="326" y2="36" stroke="#96b593" stroke-width="1.5" stroke-linecap="round"/>
  <rect x="336" y="23" width="120" height="8" rx="3" fill="#c1d4bf"/>
  <!-- ⌘K badge -->
  <rect x="564" y="18" width="36" height="20" rx="4" fill="#f2f5f1" stroke="#c1d4bf" stroke-width="0.5"/>
  <rect x="572" y="25" width="20" height="6" rx="2" fill="#96b593"/>

  <!-- Theme toggle -->
  <circle cx="2360" cy="28" r="14" fill="#f2f5f1" stroke="#c1d4bf" stroke-width="0.5"/>
  <circle cx="2360" cy="28" r="6" fill="none" stroke="#5d8a5a" stroke-width="1.5"/>

  <!-- ═══════════════════════════════════════════
       MAIN CONTENT
       ═══════════════════════════════════════════ -->

  <!-- Breadcrumb -->
  <rect x="300" y="80" width="72" height="8" rx="3" fill="#96b593"/>

  <!-- Page title: "Dashboard" -->
  <rect x="300" y="104" width="200" height="22" rx="4" fill="#1a311e"/>

  <!-- Description -->
  <rect x="300" y="138" width="420" height="10" rx="3" fill="#96b593"/>

  <!-- ═══════════════════════════════════════════
       KPI CARDS — 6 across
       ═══════════════════════════════════════════ -->
  <!-- Card width: ~330, gap: 20, starting x=300 -->
  <!-- Row: Branches | Roots | New Growth | Grove Value | Harvest | Yield Rate -->

  <!-- Card 1: Branches -->
  <rect x="300" y="174" width="330" height="110" rx="12" fill="#ffffff" stroke="#e0e9df" stroke-width="1"/>
  <rect x="324" y="196" width="68" height="9" rx="3" fill="#96b593"/>
  <rect x="324" y="218" width="50" height="20" rx="4" fill="#1a311e"/>
  <!-- Icon badge -->
  <rect x="596" y="192" width="28" height="28" rx="6" fill="#f2f5f1"/>
  <rect x="604" y="200" width="12" height="12" rx="2" fill="#2f5435"/>

  <!-- Card 2: Roots -->
  <rect x="650" y="174" width="330" height="110" rx="12" fill="#ffffff" stroke="#e0e9df" stroke-width="1"/>
  <rect x="674" y="196" width="48" height="9" rx="3" fill="#96b593"/>
  <rect x="674" y="218" width="36" height="20" rx="4" fill="#1a311e"/>
  <rect x="946" y="192" width="28" height="28" rx="6" fill="#f2f5f1"/>
  <rect x="954" y="200" width="12" height="12" rx="2" fill="#2f5435"/>

  <!-- Card 3: New Growth -->
  <rect x="1000" y="174" width="330" height="110" rx="12" fill="#ffffff" stroke="#e0e9df" stroke-width="1"/>
  <rect x="1024" y="196" width="86" height="9" rx="3" fill="#96b593"/>
  <rect x="1024" y="218" width="44" height="20" rx="4" fill="#1a311e"/>
  <rect x="1296" y="192" width="28" height="28" rx="6" fill="#f2f5f1"/>
  <rect x="1304" y="200" width="12" height="12" rx="2" fill="#2f5435"/>

  <!-- Card 4: Grove Value -->
  <rect x="1350" y="174" width="330" height="110" rx="12" fill="#ffffff" stroke="#e0e9df" stroke-width="1"/>
  <rect x="1374" y="196" width="90" height="9" rx="3" fill="#96b593"/>
  <rect x="1374" y="218" width="80" height="20" rx="4" fill="#1a311e"/>
  <rect x="1646" y="192" width="28" height="28" rx="6" fill="#f2f5f1"/>
  <rect x="1654" y="200" width="12" height="12" rx="2" fill="#2f5435"/>

  <!-- Card 5: Harvest -->
  <rect x="1700" y="174" width="330" height="110" rx="12" fill="#ffffff" stroke="#e0e9df" stroke-width="1"/>
  <rect x="1724" y="196" width="64" height="9" rx="3" fill="#96b593"/>
  <rect x="1724" y="218" width="72" height="20" rx="4" fill="#1a311e"/>
  <!-- Trend indicator (green up) -->
  <rect x="1724" y="250" width="50" height="8" rx="3" fill="#2f5435"/>
  <rect x="1996" y="192" width="28" height="28" rx="6" fill="#f2f5f1"/>
  <rect x="2004" y="200" width="12" height="12" rx="2" fill="#2f5435"/>

  <!-- Card 6: Yield Rate -->
  <rect x="2050" y="174" width="330" height="110" rx="12" fill="#ffffff" stroke="#e0e9df" stroke-width="1"/>
  <rect x="2074" y="196" width="78" height="9" rx="3" fill="#96b593"/>
  <rect x="2074" y="218" width="48" height="20" rx="4" fill="#1a311e"/>
  <rect x="2074" y="250" width="40" height="8" rx="3" fill="#2f5435"/>
  <rect x="2346" y="192" width="28" height="28" rx="6" fill="#f2f5f1"/>
  <rect x="2354" y="200" width="12" height="12" rx="2" fill="#2f5435"/>

  <!-- ═══════════════════════════════════════════
       TWO-COLUMN LAYOUT
       Left: Recent Activity    Right: Top Referrers + Achievements
       ═══════════════════════════════════════════ -->

  <!-- ── LEFT: Recent Activity ── -->
  <rect x="300" y="310" width="1030" height="560" rx="12" fill="#ffffff" stroke="#e0e9df" stroke-width="1"/>

  <!-- Section title -->
  <rect x="332" y="338" width="130" height="14" rx="4" fill="#1a311e"/>
  <!-- Subtitle -->
  <rect x="332" y="362" width="240" height="8" rx="3" fill="#96b593"/>

  <!-- Activity item 1 -->
  <rect x="332" y="394" width="966" height="56" rx="8" fill="#f8faf7"/>
  <circle cx="362" cy="422" r="14" fill="#f2f5f1" stroke="#e0e9df" stroke-width="1"/>
  <rect x="386" y="412" width="180" height="10" rx="3" fill="#1a311e"/>
  <rect x="386" y="428" width="280" height="8" rx="3" fill="#96b593"/>
  <rect x="1200" y="416" width="70" height="8" rx="3" fill="#c1d4bf"/>

  <!-- Activity item 2 -->
  <rect x="332" y="462" width="966" height="56" rx="8" fill="#f8faf7"/>
  <circle cx="362" cy="490" r="14" fill="#f2f5f1" stroke="#e0e9df" stroke-width="1"/>
  <rect x="386" y="480" width="150" height="10" rx="3" fill="#1a311e"/>
  <rect x="386" y="496" width="240" height="8" rx="3" fill="#96b593"/>
  <rect x="1200" y="484" width="60" height="8" rx="3" fill="#c1d4bf"/>

  <!-- Activity item 3 -->
  <rect x="332" y="530" width="966" height="56" rx="8" fill="#f8faf7"/>
  <circle cx="362" cy="558" r="14" fill="#f2f5f1" stroke="#e0e9df" stroke-width="1"/>
  <rect x="386" y="548" width="200" height="10" rx="3" fill="#1a311e"/>
  <rect x="386" y="564" width="260" height="8" rx="3" fill="#96b593"/>
  <rect x="1200" y="552" width="80" height="8" rx="3" fill="#c1d4bf"/>

  <!-- Activity item 4 -->
  <rect x="332" y="598" width="966" height="56" rx="8" fill="#f8faf7"/>
  <circle cx="362" cy="626" r="14" fill="#f2f5f1" stroke="#e0e9df" stroke-width="1"/>
  <rect x="386" y="616" width="170" height="10" rx="3" fill="#1a311e"/>
  <rect x="386" y="632" width="220" height="8" rx="3" fill="#96b593"/>
  <rect x="1200" y="620" width="68" height="8" rx="3" fill="#c1d4bf"/>

  <!-- Activity item 5 -->
  <rect x="332" y="666" width="966" height="56" rx="8" fill="#f8faf7"/>
  <circle cx="362" cy="694" r="14" fill="#f2f5f1" stroke="#e0e9df" stroke-width="1"/>
  <rect x="386" y="684" width="190" height="10" rx="3" fill="#1a311e"/>
  <rect x="386" y="700" width="250" height="8" rx="3" fill="#96b593"/>
  <rect x="1200" y="688" width="58" height="8" rx="3" fill="#c1d4bf"/>

  <!-- Activity item 6 -->
  <rect x="332" y="734" width="966" height="56" rx="8" fill="#f8faf7"/>
  <circle cx="362" cy="762" r="14" fill="#f2f5f1" stroke="#e0e9df" stroke-width="1"/>
  <rect x="386" y="752" width="160" height="10" rx="3" fill="#1a311e"/>
  <rect x="386" y="768" width="230" height="8" rx="3" fill="#96b593"/>
  <rect x="1200" y="756" width="75" height="8" rx="3" fill="#c1d4bf"/>

  <!-- Activity item 7 -->
  <rect x="332" y="802" width="966" height="56" rx="8" fill="#f8faf7"/>
  <circle cx="362" cy="830" r="14" fill="#f2f5f1" stroke="#e0e9df" stroke-width="1"/>
  <rect x="386" y="820" width="140" height="10" rx="3" fill="#1a311e"/>
  <rect x="386" y="836" width="200" height="8" rx="3" fill="#96b593"/>
  <rect x="1200" y="824" width="65" height="8" rx="3" fill="#c1d4bf"/>

  <!-- ── RIGHT COLUMN ── -->

  <!-- ── Top Referrers ── -->
  <rect x="1350" y="310" width="1030" height="340" rx="12" fill="#ffffff" stroke="#e0e9df" stroke-width="1"/>

  <!-- Section title -->
  <rect x="1382" y="338" width="120" height="14" rx="4" fill="#1a311e"/>

  <!-- Referrer 1 -->
  <rect x="1382" y="374" width="966" height="48" rx="8" fill="#f8faf7"/>
  <!-- Rank badge -->
  <circle cx="1408" cy="398" r="12" fill="#e0e9df"/>
  <rect x="1404" y="394" width="8" height="8" rx="2" fill="#2f5435"/>
  <!-- Avatar -->
  <circle cx="1440" cy="398" r="14" fill="#c1d4bf"/>
  <!-- Name + subtitle -->
  <rect x="1462" y="390" width="120" height="10" rx="3" fill="#1a311e"/>
  <rect x="1462" y="404" width="80" height="7" rx="3" fill="#96b593"/>
  <!-- Value -->
  <rect x="2264" y="390" width="60" height="10" rx="3" fill="#1a311e"/>
  <rect x="2274" y="404" width="50" height="7" rx="3" fill="#96b593"/>

  <!-- Referrer 2 -->
  <rect x="1382" y="430" width="966" height="48" rx="8" fill="#f8faf7"/>
  <circle cx="1408" cy="454" r="12" fill="#e0e9df"/>
  <rect x="1404" y="450" width="8" height="8" rx="2" fill="#2f5435"/>
  <circle cx="1440" cy="454" r="14" fill="#c1d4bf"/>
  <rect x="1462" y="446" width="140" height="10" rx="3" fill="#1a311e"/>
  <rect x="1462" y="460" width="70" height="7" rx="3" fill="#96b593"/>
  <rect x="2264" y="446" width="50" height="10" rx="3" fill="#1a311e"/>
  <rect x="2274" y="460" width="40" height="7" rx="3" fill="#96b593"/>

  <!-- Referrer 3 -->
  <rect x="1382" y="486" width="966" height="48" rx="8" fill="#f8faf7"/>
  <circle cx="1408" cy="510" r="12" fill="#e0e9df"/>
  <rect x="1404" y="506" width="8" height="8" rx="2" fill="#2f5435"/>
  <circle cx="1440" cy="510" r="14" fill="#c1d4bf"/>
  <rect x="1462" y="502" width="100" height="10" rx="3" fill="#1a311e"/>
  <rect x="1462" y="516" width="90" height="7" rx="3" fill="#96b593"/>
  <rect x="2264" y="502" width="56" height="10" rx="3" fill="#1a311e"/>
  <rect x="2274" y="516" width="46" height="7" rx="3" fill="#96b593"/>

  <!-- Referrer 4 -->
  <rect x="1382" y="542" width="966" height="48" rx="8" fill="#f8faf7"/>
  <circle cx="1408" cy="566" r="12" fill="#e0e9df"/>
  <rect x="1404" y="562" width="8" height="8" rx="2" fill="#2f5435"/>
  <circle cx="1440" cy="566" r="14" fill="#c1d4bf"/>
  <rect x="1462" y="558" width="130" height="10" rx="3" fill="#1a311e"/>
  <rect x="1462" y="572" width="75" height="7" rx="3" fill="#96b593"/>
  <rect x="2264" y="558" width="44" height="10" rx="3" fill="#1a311e"/>
  <rect x="2274" y="572" width="34" height="7" rx="3" fill="#96b593"/>

  <!-- Referrer 5 -->
  <rect x="1382" y="598" width="966" height="48" rx="8" fill="#f8faf7"/>
  <circle cx="1408" cy="622" r="12" fill="#e0e9df"/>
  <rect x="1404" y="618" width="8" height="8" rx="2" fill="#2f5435"/>
  <circle cx="1440" cy="622" r="14" fill="#c1d4bf"/>
  <rect x="1462" y="614" width="110" height="10" rx="3" fill="#1a311e"/>
  <rect x="1462" y="628" width="85" height="7" rx="3" fill="#96b593"/>
  <rect x="2264" y="614" width="52" height="10" rx="3" fill="#1a311e"/>
  <rect x="2274" y="628" width="42" height="7" rx="3" fill="#96b593"/>

  <!-- ── Network Exchange Widget ── -->
  <rect x="1350" y="670" width="1030" height="200" rx="12" fill="#ffffff" stroke="#e0e9df" stroke-width="1"/>

  <!-- Header with icon -->
  <rect x="1382" y="694" width="14" height="14" rx="3" fill="#0d9488"/>
  <rect x="1404" y="694" width="140" height="14" rx="4" fill="#1a311e"/>
  <!-- "View all" link -->
  <rect x="2310" y="698" width="46" height="8" rx="3" fill="#2f5435"/>

  <!-- Mini stats row (4 across) -->
  <rect x="1382" y="726" width="230" height="50" rx="8" fill="#f0fdfa" stroke="#ccfbf1" stroke-width="0.5"/>
  <rect x="1432" y="736" width="30" height="16" rx="3" fill="#0d9488"/>
  <rect x="1424" y="758" width="46" height="7" rx="2" fill="#5eead4"/>

  <rect x="1632" y="726" width="230" height="50" rx="8" fill="#f0fdfa" stroke="#ccfbf1" stroke-width="0.5"/>
  <rect x="1688" y="736" width="24" height="16" rx="3" fill="#0d9488"/>
  <rect x="1674" y="758" width="52" height="7" rx="2" fill="#5eead4"/>

  <rect x="1882" y="726" width="230" height="50" rx="8" fill="#f0fdfa" stroke="#ccfbf1" stroke-width="0.5"/>
  <rect x="1938" y="736" width="28" height="16" rx="3" fill="#0d9488"/>
  <rect x="1928" y="758" width="48" height="7" rx="2" fill="#5eead4"/>

  <rect x="2132" y="726" width="230" height="50" rx="8" fill="#f0fdfa" stroke="#ccfbf1" stroke-width="0.5"/>
  <rect x="2188" y="736" width="36" height="16" rx="3" fill="#0d9488"/>
  <rect x="2178" y="758" width="56" height="7" rx="2" fill="#5eead4"/>

  <!-- Network reach badge -->
  <rect x="1382" y="792" width="966" height="40" rx="8" fill="#f0fdfa" stroke="#ccfbf1" stroke-width="0.5"/>
  <circle cx="1410" cy="812" r="10" fill="#ccfbf1"/>
  <rect x="1428" y="804" width="100" height="8" rx="3" fill="#0d9488"/>
  <rect x="1428" y="816" width="140" height="7" rx="3" fill="#5eead4"/>
  <rect x="2250" y="806" width="80" height="8" rx="3" fill="#0d9488"/>

  <!-- ── Achievements Widget ── -->
  <rect x="1350" y="890" width="1030" height="242" rx="12" fill="#ffffff" stroke="#e0e9df" stroke-width="1"/>

  <!-- Header with trophy icon -->
  <rect x="1382" y="916" width="14" height="14" rx="3" fill="#eab308"/>
  <rect x="1404" y="916" width="110" height="14" rx="4" fill="#1a311e"/>
  <!-- "View all" link -->
  <rect x="2310" y="920" width="46" height="8" rx="3" fill="#2f5435"/>

  <!-- Points + streak row -->
  <rect x="1382" y="946" width="14" height="14" rx="3" fill="#eab308"/>
  <rect x="1402" y="949" width="50" height="8" rx="3" fill="#ca8a04"/>
  <rect x="1468" y="946" width="14" height="14" rx="3" fill="#f97316"/>
  <rect x="1488" y="949" width="70" height="8" rx="3" fill="#ea580c"/>

  <!-- Achievement badge 1 -->
  <rect x="1382" y="978" width="966" height="46" rx="8" fill="#f8faf7" stroke="#e0e9df" stroke-width="0.5"/>
  <rect x="1398" y="992" width="28" height="20" rx="4" fill="#fef9c3"/>
  <rect x="1438" y="988" width="120" height="9" rx="3" fill="#1a311e"/>
  <rect x="1438" y="1002" width="60" height="7" rx="3" fill="#96b593"/>
  <!-- Points -->
  <rect x="2300" y="992" width="40" height="10" rx="3" fill="#ca8a04"/>

  <!-- Achievement badge 2 -->
  <rect x="1382" y="1034" width="966" height="46" rx="8" fill="#f8faf7" stroke="#e0e9df" stroke-width="0.5"/>
  <rect x="1398" y="1048" width="28" height="20" rx="4" fill="#dbeafe"/>
  <rect x="1438" y="1044" width="140" height="9" rx="3" fill="#1a311e"/>
  <rect x="1438" y="1058" width="70" height="7" rx="3" fill="#96b593"/>
  <rect x="2300" y="1048" width="40" height="10" rx="3" fill="#ca8a04"/>

  <!-- Achievement badge 3 -->
  <rect x="1382" y="1090" width="966" height="46" rx="8" fill="#f8faf7" stroke="#e0e9df" stroke-width="0.5"/>
  <rect x="1398" y="1104" width="28" height="20" rx="4" fill="#f3e8ff"/>
  <rect x="1438" y="1100" width="100" height="9" rx="3" fill="#1a311e"/>
  <rect x="1438" y="1114" width="80" height="7" rx="3" fill="#96b593"/>
  <rect x="2300" y="1104" width="40" height="10" rx="3" fill="#ca8a04"/>

</svg>
