<svg xmlns="http://www.w3.org/2000/svg" viewBox="0 0 2432 1442" width="2432" height="1442">
  <defs>
    <linearGradient id="bg" x1="0" y1="0" x2="1" y2="1">
      <stop offset="0%" stop-color="#111827"/>
      <stop offset="100%" stop-color="#1f2937"/>
    </linearGradient>
    <linearGradient id="amber" x1="0" y1="0" x2="1" y2="0">
      <stop offset="0%" stop-color="#f59e0b"/>
      <stop offset="100%" stop-color="#d97706"/>
    </linearGradient>
    <linearGradient id="card" x1="0" y1="0" x2="0" y2="1">
      <stop offset="0%" stop-color="#1f2937"/>
      <stop offset="100%" stop-color="#111827"/>
    </linearGradient>
  </defs>

  <!-- Background -->
  <rect width="2432" height="1442" rx="12" fill="url(#bg)"/>

  <!-- Sidebar -->
  <rect x="0" y="0" width="260" height="1442" rx="12" fill="#0f172a"/>
  <rect x="260" y="0" width="1" height="1442" fill="#1e293b"/>

  <!-- Sidebar logo -->
  <rect x="24" y="24" width="36" height="36" rx="8" fill="url(#amber)"/>
  <text x="42" y="48" text-anchor="middle" fill="white" font-family="system-ui" font-size="14" font-weight="bold">RG</text>
  <rect x="72" y="30" width="120" height="12" rx="4" fill="#334155"/>
  <rect x="72" y="48" width="80" height="8" rx="3" fill="#1e293b"/>

  <!-- Sidebar nav items -->
  <rect x="16" y="90" width="228" height="40" rx="8" fill="#d97706" opacity="0.15"/>
  <rect x="32" y="104" width="16" height="16" rx="3" fill="#d97706"/>
  <rect x="60" y="106" width="80" height="10" rx="3" fill="#d97706"/>

  <rect x="32" y="150" width="16" height="16" rx="3" fill="#475569"/>
  <rect x="60" y="152" width="72" height="10" rx="3" fill="#475569"/>

  <rect x="32" y="190" width="16" height="16" rx="3" fill="#475569"/>
  <rect x="60" y="192" width="90" height="10" rx="3" fill="#475569"/>

  <rect x="32" y="230" width="16" height="16" rx="3" fill="#475569"/>
  <rect x="60" y="232" width="56" height="10" rx="3" fill="#475569"/>

  <rect x="32" y="270" width="16" height="16" rx="3" fill="#475569"/>
  <rect x="60" y="272" width="82" height="10" rx="3" fill="#475569"/>

  <!-- Sidebar section label -->
  <rect x="32" y="330" width="60" height="8" rx="3" fill="#334155"/>

  <rect x="32" y="358" width="16" height="16" rx="3" fill="#475569"/>
  <rect x="60" y="360" width="76" height="10" rx="3" fill="#475569"/>

  <rect x="32" y="398" width="16" height="16" rx="3" fill="#475569"/>
  <rect x="60" y="400" width="96" height="10" rx="3" fill="#475569"/>

  <rect x="32" y="438" width="16" height="16" rx="3" fill="#475569"/>
  <rect x="60" y="440" width="84" height="10" rx="3" fill="#475569"/>

  <!-- Main content area -->
  <!-- Top bar -->
  <rect x="260" y="0" width="2172" height="64" fill="#0f172a"/>
  <rect x="260" y="64" width="2172" height="1" fill="#1e293b"/>

  <!-- Search bar -->
  <rect x="300" y="16" width="300" height="32" rx="6" fill="#1e293b"/>
  <rect x="316" y="28" width="100" height="8" rx="3" fill="#334155"/>

  <!-- Top bar right -->
  <circle cx="2350" cy="32" r="16" fill="#1e293b"/>
  <rect x="2280" y="22" width="40" height="20" rx="4" fill="#1e293b"/>

  <!-- Page header -->
  <rect x="300" y="96" width="180" height="20" rx="4" fill="#e5e7eb"/>
  <rect x="300" y="126" width="300" height="10" rx="3" fill="#4b5563"/>

  <!-- KPI Cards row -->
  <rect x="300" y="168" width="440" height="120" rx="12" fill="url(#card)" stroke="#1e293b" stroke-width="1"/>
  <rect x="324" y="192" width="80" height="10" rx="3" fill="#6b7280"/>
  <rect x="324" y="216" width="140" height="24" rx="4" fill="#e5e7eb"/>
  <rect x="324" y="254" width="60" height="8" rx="3" fill="#059669"/>

  <rect x="760" y="168" width="440" height="120" rx="12" fill="url(#card)" stroke="#1e293b" stroke-width="1"/>
  <rect x="784" y="192" width="100" height="10" rx="3" fill="#6b7280"/>
  <rect x="784" y="216" width="100" height="24" rx="4" fill="#e5e7eb"/>
  <rect x="784" y="254" width="50" height="8" rx="3" fill="#d97706"/>

  <rect x="1220" y="168" width="440" height="120" rx="12" fill="url(#card)" stroke="#1e293b" stroke-width="1"/>
  <rect x="1244" y="192" width="110" height="10" rx="3" fill="#6b7280"/>
  <rect x="1244" y="216" width="80" height="24" rx="4" fill="#e5e7eb"/>
  <rect x="1244" y="254" width="70" height="8" rx="3" fill="#059669"/>

  <rect x="1680" y="168" width="440" height="120" rx="12" fill="url(#card)" stroke="#1e293b" stroke-width="1"/>
  <rect x="1704" y="192" width="90" height="10" rx="3" fill="#6b7280"/>
  <rect x="1704" y="216" width="120" height="24" rx="4" fill="#e5e7eb"/>
  <rect x="1704" y="254" width="55" height="8" rx="3" fill="#059669"/>

  <!-- Chart area -->
  <rect x="300" y="316" width="1100" height="440" rx="12" fill="url(#card)" stroke="#1e293b" stroke-width="1"/>
  <rect x="324" y="340" width="140" height="14" rx="3" fill="#e5e7eb"/>
  <rect x="324" y="362" width="200" height="8" rx="3" fill="#4b5563"/>

  <!-- Chart line -->
  <polyline points="360,700 460,680 560,640 660,660 760,580 860,560 960,520 1060,540 1160,480 1260,440 1360,420"
    fill="none" stroke="#d97706" stroke-width="3" stroke-linecap="round" stroke-linejoin="round"/>
  <polyline points="360,700 460,680 560,640 660,660 760,580 860,560 960,520 1060,540 1160,480 1260,440 1360,420 1360,720 360,720"
    fill="#d97706" opacity="0.08"/>

  <!-- Chart grid lines -->
  <line x1="360" y1="420" x2="1370" y2="420" stroke="#1e293b" stroke-width="1"/>
  <line x1="360" y1="500" x2="1370" y2="500" stroke="#1e293b" stroke-width="1"/>
  <line x1="360" y1="580" x2="1370" y2="580" stroke="#1e293b" stroke-width="1"/>
  <line x1="360" y1="660" x2="1370" y2="660" stroke="#1e293b" stroke-width="1"/>
  <line x1="360" y1="720" x2="1370" y2="720" stroke="#1e293b" stroke-width="1"/>

  <!-- Right panel - Top referrers -->
  <rect x="1420" y="316" width="700" height="440" rx="12" fill="url(#card)" stroke="#1e293b" stroke-width="1"/>
  <rect x="1444" y="340" width="120" height="14" rx="3" fill="#e5e7eb"/>

  <!-- Referrer list items -->
  <circle cx="1468" cy="392" r="18" fill="#1e293b"/>
  <rect x="1498" y="384" width="120" height="10" rx="3" fill="#d1d5db"/>
  <rect x="1498" y="400" width="80" height="8" rx="3" fill="#4b5563"/>
  <rect x="2040" y="386" width="50" height="14" rx="4" fill="#d97706" opacity="0.15"/>
  <rect x="2050" y="390" width="30" height="8" rx="3" fill="#d97706"/>

  <circle cx="1468" cy="442" r="18" fill="#1e293b"/>
  <rect x="1498" y="434" width="100" height="10" rx="3" fill="#d1d5db"/>
  <rect x="1498" y="450" width="90" height="8" rx="3" fill="#4b5563"/>
  <rect x="2040" y="436" width="50" height="14" rx="4" fill="#d97706" opacity="0.15"/>
  <rect x="2050" y="440" width="30" height="8" rx="3" fill="#d97706"/>

  <circle cx="1468" cy="492" r="18" fill="#1e293b"/>
  <rect x="1498" y="484" width="140" height="10" rx="3" fill="#d1d5db"/>
  <rect x="1498" y="500" width="70" height="8" rx="3" fill="#4b5563"/>
  <rect x="2040" y="486" width="50" height="14" rx="4" fill="#d97706" opacity="0.15"/>
  <rect x="2050" y="490" width="30" height="8" rx="3" fill="#d97706"/>

  <circle cx="1468" cy="542" r="18" fill="#1e293b"/>
  <rect x="1498" y="534" width="110" height="10" rx="3" fill="#d1d5db"/>
  <rect x="1498" y="550" width="85" height="8" rx="3" fill="#4b5563"/>
  <rect x="2040" y="536" width="50" height="14" rx="4" fill="#d97706" opacity="0.15"/>
  <rect x="2050" y="540" width="30" height="8" rx="3" fill="#d97706"/>

  <circle cx="1468" cy="592" r="18" fill="#1e293b"/>
  <rect x="1498" y="584" width="130" height="10" rx="3" fill="#d1d5db"/>
  <rect x="1498" y="600" width="75" height="8" rx="3" fill="#4b5563"/>
  <rect x="2040" y="586" width="50" height="14" rx="4" fill="#d97706" opacity="0.15"/>
  <rect x="2050" y="590" width="30" height="8" rx="3" fill="#d97706"/>

  <!-- Network visualization preview -->
  <rect x="300" y="784" width="1820" height="620" rx="12" fill="url(#card)" stroke="#1e293b" stroke-width="1"/>
  <rect x="324" y="808" width="160" height="14" rx="3" fill="#e5e7eb"/>
  <rect x="324" y="830" width="240" height="8" rx="3" fill="#4b5563"/>

  <!-- Network nodes and edges -->
  <!-- Central node -->
  <circle cx="1210" cy="1080" r="32" fill="#d97706" opacity="0.2" stroke="#d97706" stroke-width="2"/>
  <circle cx="1210" cy="1080" r="20" fill="#d97706"/>

  <!-- Connected nodes -->
  <line x1="1210" y1="1080" x2="950" y2="940" stroke="#475569" stroke-width="1.5"/>
  <circle cx="950" cy="940" r="16" fill="#3b82f6" opacity="0.8"/>

  <line x1="1210" y1="1080" x2="1450" y2="920" stroke="#475569" stroke-width="1.5"/>
  <circle cx="1450" cy="920" r="14" fill="#10b981" opacity="0.8"/>

  <line x1="1210" y1="1080" x2="1500" y2="1150" stroke="#475569" stroke-width="1.5"/>
  <circle cx="1500" cy="1150" r="18" fill="#f59e0b" opacity="0.8"/>

  <line x1="1210" y1="1080" x2="900" y2="1180" stroke="#475569" stroke-width="1.5"/>
  <circle cx="900" cy="1180" r="15" fill="#8b5cf6" opacity="0.8"/>

  <line x1="1210" y1="1080" x2="1100" y2="880" stroke="#475569" stroke-width="1.5"/>
  <circle cx="1100" cy="880" r="12" fill="#ec4899" opacity="0.8"/>

  <line x1="950" y1="940" x2="750" y2="880" stroke="#334155" stroke-width="1"/>
  <circle cx="750" cy="880" r="10" fill="#3b82f6" opacity="0.6"/>

  <line x1="950" y1="940" x2="800" y2="1020" stroke="#334155" stroke-width="1"/>
  <circle cx="800" cy="1020" r="11" fill="#6366f1" opacity="0.6"/>

  <line x1="1450" y1="920" x2="1600" y2="860" stroke="#334155" stroke-width="1"/>
  <circle cx="1600" cy="860" r="10" fill="#10b981" opacity="0.6"/>

  <line x1="1450" y1="920" x2="1580" y2="1000" stroke="#334155" stroke-width="1"/>
  <circle cx="1580" cy="1000" r="12" fill="#14b8a6" opacity="0.6"/>

  <line x1="1500" y1="1150" x2="1650" y2="1220" stroke="#334155" stroke-width="1"/>
  <circle cx="1650" cy="1220" r="10" fill="#f59e0b" opacity="0.6"/>

  <line x1="1500" y1="1150" x2="1550" y2="1300" stroke="#334155" stroke-width="1"/>
  <circle cx="1550" cy="1300" r="9" fill="#fb923c" opacity="0.6"/>

  <line x1="900" y1="1180" x2="720" y2="1260" stroke="#334155" stroke-width="1"/>
  <circle cx="720" cy="1260" r="10" fill="#8b5cf6" opacity="0.6"/>

  <line x1="900" y1="1180" x2="820" y2="1320" stroke="#334155" stroke-width="1"/>
  <circle cx="820" cy="1320" r="8" fill="#a78bfa" opacity="0.6"/>

  <line x1="1100" y1="880" x2="1050" y2="780" stroke="#334155" stroke-width="1"/>
  <circle cx="1050" cy="780" r="9" fill="#ec4899" opacity="0.6"/>

  <!-- Third level connections -->
  <line x1="750" y1="880" x2="620" y2="840" stroke="#1e293b" stroke-width="1"/>
  <circle cx="620" cy="840" r="7" fill="#3b82f6" opacity="0.4"/>

  <line x1="1600" y1="860" x2="1720" y2="820" stroke="#1e293b" stroke-width="1"/>
  <circle cx="1720" cy="820" r="7" fill="#10b981" opacity="0.4"/>

  <line x1="1650" y1="1220" x2="1780" y2="1260" stroke="#1e293b" stroke-width="1"/>
  <circle cx="1780" cy="1260" r="7" fill="#f59e0b" opacity="0.4"/>

  <!-- Placeholder text overlay -->
  <rect x="916" y="1060" width="588" height="44" rx="8" fill="#111827" opacity="0.85"/>
  <text x="1210" y="1088" text-anchor="middle" fill="#9ca3af" font-family="system-ui" font-size="16" font-weight="500">Replace with your app screenshot</text>
</svg>