<svg width="48" height="48" viewBox="0 0 48 48" fill="none" xmlns="http://www.w3.org/2000/svg">
  <!-- Connection lines -->
  <line x1="24" y1="6" x2="12" y2="18" stroke="#2f5435" stroke-width="1.8" stroke-linecap="round" />
  <line x1="24" y1="6" x2="36" y2="18" stroke="#2f5435" stroke-width="1.8" stroke-linecap="round" />
  <line x1="12" y1="18" x2="8" y2="32" stroke="#2f5435" stroke-width="1.8" stroke-linecap="round" />
  <line x1="12" y1="18" x2="24" y2="32" stroke="#2f5435" stroke-width="1.8" stroke-linecap="round" />
  <line x1="36" y1="18" x2="24" y2="32" stroke="#2f5435" stroke-width="1.8" stroke-linecap="round" />
  <line x1="36" y1="18" x2="40" y2="32" stroke="#2f5435" stroke-width="1.8" stroke-linecap="round" />
  <line x1="8" y1="32" x2="16" y2="42" stroke="#2f5435" stroke-width="1.8" stroke-linecap="round" />
  <line x1="24" y1="32" x2="16" y2="42" stroke="#2f5435" stroke-width="1.8" stroke-linecap="round" />
  <line x1="24" y1="32" x2="32" y2="42" stroke="#2f5435" stroke-width="1.8" stroke-linecap="round" />
  <line x1="40" y1="32" x2="32" y2="42" stroke="#2f5435" stroke-width="1.8" stroke-linecap="round" />
  <!-- Cross connections -->
  <line x1="12" y1="18" x2="36" y2="18" stroke="#2f5435" stroke-width="1" stroke-linecap="round" opacity="0.3" />
  <line x1="8" y1="32" x2="40" y2="32" stroke="#2f5435" stroke-width="1" stroke-linecap="round" opacity="0.3" />
  <!-- Nodes -->
  <circle cx="24" cy="6" r="3.5" fill="#5d8a5a" stroke="#2f5435" stroke-width="1.5" />
  <circle cx="12" cy="18" r="3" fill="#96b593" stroke="#2f5435" stroke-width="1.5" />
  <circle cx="36" cy="18" r="3" fill="#96b593" stroke="#2f5435" stroke-width="1.5" />
  <circle cx="8" cy="32" r="2.5" fill="#c4a96a" stroke="#2f5435" stroke-width="1.2" />
  <circle cx="24" cy="32" r="3" fill="#96b593" stroke="#2f5435" stroke-width="1.5" />
  <circle cx="40" cy="32" r="2.5" fill="#c4a96a" stroke="#2f5435" stroke-width="1.2" />
  <circle cx="16" cy="42" r="2.5" fill="#b09352" stroke="#2f5435" stroke-width="1.2" />
  <circle cx="32" cy="42" r="2.5" fill="#b09352" stroke="#2f5435" stroke-width="1.2" />
</svg>
